<svg width="21" height="20" viewBox="0 0 21 20" fill="none" xmlns="http://www.w3.org/2000/svg">
<path d="M10.4615 10V9C9.90922 9 9.46151 9.44771 9.46151 10H10.4615ZM10.5443 10H11.5443C11.5443 9.44771 11.0966 9 10.5443 9V10ZM10.5443 10.0721V11.0721C11.0966 11.0721 11.5443 10.6244 11.5443 10.0721H10.5443ZM10.4615 10.0721H9.46151C9.46151 10.6244 9.90922 11.0721 10.4615 11.0721V10.0721ZM18.8077 10C18.8077 14.383 15.1069 18 10.4615 18V20C16.1396 20 20.8077 15.5581 20.8077 10H18.8077ZM10.4615 18C5.81615 18 2.11536 14.383 2.11536 10H0.115356C0.115356 15.5581 4.78339 20 10.4615 20V18ZM2.11536 10C2.11536 5.61696 5.81615 2 10.4615 2V0C4.78339 0 0.115356 4.44192 0.115356 10H2.11536ZM10.4615 2C15.1069 2 18.8077 5.61696 18.8077 10H20.8077C20.8077 4.44192 16.1396 0 10.4615 0V2ZM14.1346 10C14.1346 11.8978 12.526 13.5 10.4615 13.5V15.5C13.5588 15.5 16.1346 13.0728 16.1346 10H14.1346ZM10.4615 13.5C8.39702 13.5 6.78843 11.8978 6.78843 10H4.78843C4.78843 13.0728 7.36426 15.5 10.4615 15.5V13.5ZM6.78843 10C6.78843 8.10224 8.39702 6.5 10.4615 6.5V4.5C7.36426 4.5 4.78843 6.9272 4.78843 10H6.78843ZM10.4615 6.5C12.526 6.5 14.1346 8.10224 14.1346 10H16.1346C16.1346 6.9272 13.5588 4.5 10.4615 4.5V6.5ZM10.4615 11H10.5443V9H10.4615V11ZM9.54427 10V10.0721H11.5443V10H9.54427ZM10.5443 9.07207H10.4615V11.0721H10.5443V9.07207ZM11.4615 10.0721V10H9.46151V10.0721H11.4615Z" fill="black" fill-opacity="0.48"/>
</svg>
