<svg width="22" height="22" viewBox="0 0 22 22" fill="none" xmlns="http://www.w3.org/2000/svg">
<path d="M0.400002 6.00802C0.400002 6.56031 0.847717 7.00802 1.4 7.00802C1.95229 7.00802 2.4 6.56031 2.4 6.00802H0.400002ZM6.008 2.40002C6.56029 2.40002 7.008 1.95231 7.008 1.40002C7.008 0.84774 6.56029 0.400025 6.008 0.400025V2.40002ZM15.992 0.400024C15.4397 0.400024 14.992 0.84774 14.992 1.40002C14.992 1.95231 15.4397 2.40002 15.992 2.40002V0.400024ZM16.76 1.40002V0.400024V1.40002ZM20.6 5.24002H19.6H20.6ZM19.6 6.00802C19.6 6.56031 20.0477 7.00802 20.6 7.00802C21.1523 7.00802 21.6 6.56031 21.6 6.00802H19.6ZM5.56311 18.6191C5.95363 18.2286 5.95363 17.5954 5.56311 17.2049C5.17258 16.8144 4.53942 16.8144 4.14889 17.2049L5.56311 18.6191ZM1.46089 19.8929C1.07037 20.2834 1.07037 20.9166 1.46089 21.3071C1.85142 21.6977 2.48458 21.6977 2.87511 21.3071L1.46089 19.8929ZM19.1249 21.3071C19.5154 21.6977 20.1486 21.6977 20.5391 21.3071C20.9296 20.9166 20.9296 20.2834 20.5391 19.8929L19.1249 21.3071ZM17.8511 17.2049C17.4606 16.8144 16.8274 16.8144 16.4369 17.2049C16.0464 17.5954 16.0464 18.2286 16.4369 18.6191L17.8511 17.2049ZM12 8.60002C12 8.04774 11.5523 7.60002 11 7.60002C10.4477 7.60002 10 8.04774 10 8.60002H12ZM10 14.6C10 15.1523 10.4477 15.6 11 15.6C11.5523 15.6 12 15.1523 12 14.6H10ZM14 12.6C14.5523 12.6 15 12.1523 15 11.6C15 11.0477 14.5523 10.6 14 10.6V12.6ZM8 10.6C7.44772 10.6 7 11.0477 7 11.6C7 12.1523 7.44772 12.6 8 12.6V10.6ZM2.4 6.00802V5.24002H0.400002V6.00802H2.4ZM5.24 2.40002H6.008V0.400025H5.24V2.40002ZM2.4 5.24002C2.4 3.67154 3.67151 2.40002 5.24 2.40002V0.400025C2.56694 0.400025 0.400002 2.56697 0.400002 5.24002H2.4ZM15.992 2.40002H16.76V0.400024L15.992 0.400024V2.40002ZM19.6 5.24002V6.00802H21.6V5.24002H19.6ZM16.76 2.40002C18.3285 2.40002 19.6 3.67154 19.6 5.24002H21.6C21.6 2.56697 19.4331 0.400025 16.76 0.400024V2.40002ZM4.14889 17.2049L1.46089 19.8929L2.87511 21.3071L5.56311 18.6191L4.14889 17.2049ZM20.5391 19.8929L17.8511 17.2049L16.4369 18.6191L19.1249 21.3071L20.5391 19.8929ZM18.448 11.768C18.448 15.8814 15.1134 19.216 11 19.216V21.216C16.218 21.216 20.448 16.986 20.448 11.768H18.448ZM11 19.216C6.88658 19.216 3.552 15.8814 3.552 11.768H1.552C1.552 16.986 5.78201 21.216 11 21.216V19.216ZM3.552 11.768C3.552 7.65461 6.88658 4.32002 11 4.32002V2.32002C5.78201 2.32002 1.552 6.55004 1.552 11.768H3.552ZM11 4.32002C15.1134 4.32002 18.448 7.65461 18.448 11.768H20.448C20.448 6.55004 16.218 2.32002 11 2.32002V4.32002ZM10 8.60002V11.6H12V8.60002H10ZM10 11.6V14.6H12V11.6H10ZM14 10.6H11V12.6H14V10.6ZM11 10.6H8V12.6H11V10.6Z" fill="#F7CCC8"/>
</svg>
